# xmcd CD database file
#
# Track frame offsets:
#	150
#	15411
#	34266
#	56447
#	73925
#	91145
#	109331
#	129975
#	140632
#
# Disc length: 2173 seconds
#
# Revision: 0
# Processed by: cddbd v1.5.2PL0 Copyright (c) Steve Scherf et al.
# Submitted via: CDex 1.70beta2
#
DISCID=79087b09
DTITLE=Trijntje Oosterhuis - Sundays in New York
DYEAR=2011
DGENRE=Jazz
TTITLE0=Everything has changed
TTITLE1=Ain't nothing like the real thing
TTITLE2=Oh what a beautiful morning
TTITLE3=People get ready
TTITLE4=Trust in me
TTITLE5=Another Saterday night
TTITLE6=I wish you love
TTITLE7=Crying over you
TTITLE8=The best things in life are free
EXTD=YEAR: 2011
EXTT0=
EXTT1=
EXTT2=
EXTT3=
EXTT4=
EXTT5=
EXTT6=
EXTT7=
EXTT8=
PLAYORDER=
